<svg width="467" height="331" viewBox="0 0 467 331" fill="none" xmlns="http://www.w3.org/2000/svg">
<g style="mix-blend-mode:multiply">
<rect x="22" y="314" width="422" height="7" fill="#18181B"/>
</g>
<path d="M221.247 150.885C221.247 150.885 159.395 175.007 144.668 196.552C144.03 197.492 143.446 198.467 142.919 199.473C130.177 223.668 127.758 292.815 127.758 292.815H354.846L343.445 204.321C340.119 190.754 326.77 178.896 314.445 171.471C302.746 164.416 287.203 156.04 271.915 150.885L221.247 150.885Z" fill="#18181B"/>
<path d="M132.489 231.435L141.951 202.926L136.887 232.495" fill="#18181B"/>
<path d="M270.496 121.13L273.236 156.42L246.008 180.453C246.008 180.453 220.295 157.748 220.012 159.835L226.525 114.219L270.496 121.13Z" fill="#FFDEC2"/>
<path d="M278.526 105.073C278.526 105.073 285.676 110.629 287.166 93.626C288.657 76.6227 290.759 72.1344 283.175 77.0842C275.59 82.0341 278.526 105.073 278.526 105.073Z" fill="#FFDEC2"/>
<path d="M207.636 102.708C207.636 102.708 200.465 108.264 198.973 91.2607C197.48 74.2575 195.418 69.7691 202.98 74.719C210.542 79.6688 207.636 102.708 207.636 102.708Z" fill="#FFDEC2"/>
<g style="mix-blend-mode:multiply" opacity="0.57">
<path d="M278.526 105.073C278.526 105.073 285.676 110.629 287.166 93.626C288.657 76.6227 290.759 72.1344 283.175 77.0842C275.59 82.0341 278.526 105.073 278.526 105.073Z" fill="#FFC192"/>
</g>
<g style="mix-blend-mode:multiply" opacity="0.57">
<path d="M207.636 102.708C207.636 102.708 200.465 108.264 198.973 91.2607C197.48 74.2575 195.418 69.7691 202.98 74.719C210.542 79.6688 207.636 102.708 207.636 102.708Z" fill="#FFC192"/>
</g>
<g style="mix-blend-mode:multiply" opacity="0.57">
<path d="M221.195 147.91C221.195 147.91 257.94 162.774 270.871 126.047L223.134 133.732L221.195 147.91Z" fill="#FFC192"/>
</g>
<path d="M206.457 84.6501C206.457 84.6501 198.23 55.1794 202.144 49.0453C206.058 42.9113 207.462 15.8943 237.649 10.8427C267.837 5.79107 273.191 29.5065 273.191 29.5065C273.191 29.5065 284.661 31.7436 285.503 38.1483C286.346 44.553 288.303 79.6436 278.509 81.4477C268.715 83.2519 206.457 84.6501 206.457 84.6501Z" fill="#995802"/>
<path d="M270.871 44.6372C270.871 44.6372 254.57 8.38911 208.185 38.9371C208.185 38.9371 229.367 41.077 233.777 52.6155C238.187 64.154 270.871 44.6372 270.871 44.6372Z" fill="#C97C1F"/>
<path d="M248.625 146.122C248.625 146.122 264.754 148.071 275.047 121.873C285.341 95.6759 280.333 74.2071 280.054 70.8681C279.775 67.5291 278.667 55.2561 278.109 53.8664C277.551 52.4766 270.562 36.9278 250.57 43.8313C250.57 43.8313 231.659 41.3948 226.372 42.7845C221.086 44.1743 209.262 62.0153 207.182 83.1321C205.038 104.863 222.491 143.053 238.053 145.319L248.625 146.122Z" fill="#FFDEC2"/>
<path opacity="0.18" fill-rule="evenodd" clip-rule="evenodd" d="M221.32 112.875C221.32 112.875 236.017 93.6798 272.674 108.206C277.321 99.3533 281.515 90.5645 281.515 90.5645C281.126 101.194 278.944 111.679 275.061 121.572C264.685 148.094 248.427 146.121 248.427 146.121L237.769 145.308C225.823 143.563 212.778 120.75 208.185 100.24C208.185 100.24 214.421 105.566 221.32 112.875ZM261.763 111.87C261.775 111.822 261.78 111.797 261.78 111.797H261.826C261.806 111.821 261.785 111.846 261.763 111.87ZM261.763 111.87C258.744 115.168 234.909 114.547 234.828 114.538C236.544 122.97 245.722 122.76 245.722 122.76C258.71 122.925 261.525 112.828 261.763 111.87Z" fill="#C97C1F"/>
<rect x="2" y="294" width="462" height="19" fill="#875A42"/>
<rect x="426.994" y="296.363" width="40.2136" height="56.7721" rx="9.55" transform="rotate(-180 426.994 296.363)" fill="#0EA5E9"/>
<rect x="422.263" y="251.418" width="31.9343" height="7.09651" rx="3.54825" transform="rotate(-180 422.263 251.418)" fill="white"/>
<path d="M418.963 245.56C420.06 245.333 421.178 245.831 421.798 246.824C422.418 247.816 422.418 249.109 421.798 250.102C421.178 251.094 420.06 251.593 418.963 251.365H393.629C392.531 251.593 391.413 251.094 390.793 250.102C390.174 249.109 390.174 247.816 390.793 246.824C391.413 245.831 392.531 245.333 393.629 245.56H418.963Z" fill="#995802"/>
<path fill-rule="evenodd" clip-rule="evenodd" d="M374.953 278.331V261.173C374.962 258.403 377.19 256.16 379.94 256.15H385.342C388.094 256.155 390.324 258.401 390.329 261.173V278.331C390.324 281.103 388.094 283.349 385.342 283.354H379.94C377.19 283.344 374.962 281.101 374.953 278.331ZM379.94 260.898C379.792 260.907 379.675 261.026 379.666 261.174V278.332C379.675 278.48 379.792 278.598 379.94 278.607H385.342C385.489 278.598 385.607 278.48 385.615 278.332V261.174C385.607 261.026 385.489 260.907 385.342 260.898H379.94Z" fill="#0EA5E9"/>
<path opacity="0.74" d="M402.293 188.732C402.293 188.732 388.678 199.546 402.293 220.272C402.293 220.272 412.345 228.833 402.293 245.504C402.293 245.504 424.261 233.79 415.445 217.118C406.628 200.447 403.528 213.514 402.293 188.732Z" fill="white"/>
<path d="M78.8443 293.998H47.234C45.3077 294 43.7019 292.526 43.5418 290.609L40.2477 251.884C40.1589 250.851 40.5081 249.829 41.2101 249.066C41.9121 248.303 42.9025 247.87 43.94 247.871H81.4778C82.5033 247.871 83.4829 248.296 84.1828 249.045C84.8827 249.794 85.2402 250.799 85.17 251.82L82.5366 290.546C82.4036 292.486 80.7915 293.993 78.8443 293.998Z" fill="#D1D5DB"/>
<rect x="42.5996" y="249.053" width="39.0308" height="4.73101" rx="2.3655" fill="#F7F9FA"/>
<path d="M61.5236 253.784C61.5236 253.784 65.2147 234.01 95.8234 232.494C95.8234 232.494 90.4435 251.747 61.5236 253.784Z" fill="#49BAAC"/>
<path d="M62.7064 253.784C62.7064 253.784 59.0624 234.01 28.4066 232.494C28.4066 232.494 33.7942 251.747 62.7064 253.784Z" fill="#49BAAC"/>
<path d="M62.7335 244.322C62.7335 244.322 60.9483 226.126 86.3614 217.119C86.3614 217.119 86.5756 235.288 62.7335 244.322Z" fill="#49BAAC"/>
<path d="M62.6628 244.322C62.6628 244.322 64.806 226.434 39.0514 217.119C39.0877 217.119 38.561 235.008 62.6628 244.322Z" fill="#49BAAC"/>
<path d="M62.6285 236.042C62.6285 236.042 56.334 222.126 73.7918 207.656C73.7918 207.656 78.8344 222.008 62.6285 236.042Z" fill="#49BAAC"/>
<path d="M62.3162 228.947C62.3162 228.947 52.5492 219.763 62.3162 201.744C62.334 201.744 71.1687 211.782 62.3162 228.947Z" fill="#49BAAC"/>
<path d="M61.9333 234.86C61.9333 234.86 67.4576 220.753 48.9702 207.656C48.9702 207.656 44.7546 222.084 61.9333 234.86Z" fill="#49BAAC"/>
<path d="M55.8635 221.85L54.4271 252.601H69.8029L67.8425 221.85H55.8635V221.85Z" fill="#49BAAC"/>
<g opacity="0.44">
<path d="M86.3745 217.439L62.2061 244.293C62.2061 244.293 84.6723 237.042 86.3745 217.439Z" fill="#338A84"/>
<path d="M95.8235 231.66L62.2516 252.602C62.2516 252.602 86.7205 252.458 95.8235 231.66Z" fill="#338A84"/>
<path d="M73.9216 207L59.8484 239.621C59.8484 239.621 78.1818 224.231 73.9216 207Z" fill="#338A84"/>
<path d="M62.1969 201.744L61.2866 231.661C61.2866 231.661 71.8006 216.199 62.1969 201.744Z" fill="#338A84"/>
<path d="M38.5747 217.242L62.2425 244.293C62.2425 244.293 41.4148 239.109 38.5747 217.242Z" fill="#338A84"/>
<path d="M28.4066 231.66L62.2516 252.602C62.2516 252.602 37.6917 252.683 28.4066 231.66Z" fill="#338A84"/>
<path d="M48.9248 207.377L61.0409 233.772C61.0409 233.772 45.5567 223.189 48.9248 207.377Z" fill="#338A84"/>
</g>
<path d="M324 241.519L351.379 233L356 252.179L326.802 261L324 241.519V241.519Z" fill="#18181B"/>
<path d="M351.413 253.785L359.577 293.701L307.536 293.999L327.011 262.469L351.413 253.785V253.785Z" fill="#FFDEC2"/>
<path d="M132.33 231L163.231 237.856L169 264L127 251.895L132.33 231V231Z" fill="#18181B"/>
<path d="M176.251 293.998L121.844 293.521L130.531 252.602L176.251 266.388V293.998V293.998Z" fill="#FFDEC2"/>
<rect x="163.24" y="188.732" width="163.22" height="99.3511" rx="12.49" fill="#71717A"/>
<rect x="165.606" y="283.354" width="158.489" height="10.6448" rx="4.07" fill="#424242"/>
<circle cx="246.033" cy="240.773" r="8.27926" fill="#F7F9FA"/>
<path d="M255.495 72.7841C256.734 71.7423 258.259 71.0345 259.905 70.7383C261.543 70.4089 263.234 70.3684 264.888 70.6189C266.532 70.8753 268.113 71.4008 269.557 72.1704C270.271 72.55 270.945 72.9894 271.572 73.4831C272.185 74.0009 272.742 74.5718 273.236 75.188C272.395 75.0516 271.664 74.8044 270.916 74.6169C270.167 74.4294 269.455 74.1992 268.715 74.0628C267.282 73.6707 265.849 73.432 264.435 73.2104C263.006 72.996 261.564 72.8594 260.117 72.8012C258.578 72.7154 257.035 72.7097 255.495 72.7841V72.7841Z" fill="#995802"/>
<path d="M236.571 72.8523C235.032 72.7551 233.489 72.7381 231.948 72.8011C230.502 72.8593 229.06 72.9959 227.631 73.2103C226.216 73.4661 224.783 73.7047 223.35 74.0628C222.611 74.1992 221.917 74.4634 221.15 74.6169C220.383 74.7703 219.671 75.0516 218.83 75.188C219.324 74.5718 219.881 74.0008 220.494 73.4831C221.12 72.9894 221.795 72.5499 222.509 72.1703C223.953 71.4007 225.534 70.8753 227.178 70.6188C228.835 70.3685 230.529 70.409 232.17 70.7382C233.82 71.0558 235.343 71.7874 236.571 72.8523V72.8523Z" fill="#995802"/>
<circle cx="260.817" cy="81.6932" r="2.95688" fill="#48466D"/>
<circle cx="230.066" cy="81.6932" r="2.95688" fill="#48466D"/>
<path d="M351.298 233.619L343.019 202.926L347.163 234.86" fill="#18181B"/>
</svg>
